<svg width="48" height="48" viewBox="0 0 27 39" xmlns="http://www.w3.org/2000/svg">
  <title>atom/logo</title>
  <path d="M11.78 9.89a5.7 5.7 0 0 1 1.46-.54 7.3 7.3 0 0 1 4.25.34 4.7 4.7 0 0 1 2.18 1.46l.47.6 6.07-6.6-.49-.43a13.5 13.5 0 0 0-5.07-2.86 19 19 0 0 0-10.74-.12 13 13 0 0 0-4.35 2.19 11 11 0 0 0-3 3.65 10.9 10.9 0 0 0-1.15 5.08 8.6 8.6 0 0 0 1.29 4.9 9.9 9.9 0 0 0 3.14 3 18 18 0 0 0 4 1.73c1.36.41 2.62.83 3.79 1.24.99.326 1.924.802 2.77 1.41a2.23 2.23 0 0 1 .91 1.9 2.1 2.1 0 0 1-.34 1.21 2.9 2.9 0 0 1-1 .9 5.4 5.4 0 0 1-1.49.58 7.5 7.5 0 0 1-5-.58 7.2 7.2 0 0 1-2.66-2.17l-.56-.63L0 33.03l.47.44a16.1 16.1 0 0 0 5.48 3.38 19.8 19.8 0 0 0 11.51.3 12.8 12.8 0 0 0 4.37-2.17 10.66 10.66 0 0 0 3-3.71 11.5 11.5 0 0 0 1.12-5.21 9.3 9.3 0 0 0-1.25-5.09 9.7 9.7 0 0 0-3.1-3 16 16 0 0 0-3.91-1.69c-1.33-.38-2.57-.76-3.73-1.14a10.3 10.3 0 0 1-2.72-1.3 2.33 2.33 0 0 1-.51-3.06 2.8 2.8 0 0 1 1.05-.89" fill="#00be82" fill-rule="evenodd"/>
</svg>