<svg xmlns="http://www.w3.org/2000/svg" viewBox="0 8.84000015258789 295 37.029998779296875" data-asc="0.9052734375" width="295" height="37.029998779296875"><defs/><g fill="#01be83"><g transform="translate(0, 0)"><path d="M0 45.26L0 9.47L25.88 9.47L25.88 13.70L4.74 13.70L4.74 24.66L24.54 24.66L24.54 28.86L4.74 28.86L4.74 41.04L26.71 41.04L26.71 45.26L0 45.26ZM31.81 27.83Q31.81 18.92 36.60 13.88Q41.38 8.84 48.95 8.84Q53.91 8.84 57.89 11.21Q61.87 13.57 63.95 17.81Q66.04 22.05 66.04 27.42Q66.04 32.86 63.84 37.16Q61.65 41.46 57.62 43.66Q53.59 45.87 48.93 45.87Q43.87 45.87 39.89 43.43Q35.91 40.99 33.86 36.77Q31.81 32.54 31.81 27.83M36.69 27.91Q36.69 34.38 40.17 38.10Q43.65 41.82 48.90 41.82Q54.25 41.82 57.70 38.06Q61.16 34.30 61.16 27.39Q61.16 23.02 59.68 19.76Q58.20 16.50 55.36 14.71Q52.51 12.92 48.97 12.92Q43.95 12.92 40.32 16.37Q36.69 19.82 36.69 27.91ZM71.95 45.26L71.95 9.47L76.68 9.47L76.68 41.04L94.31 41.04L94.31 45.26L71.95 45.26ZM137.52 32.71L142.26 33.91Q140.77 39.75 136.90 42.81Q133.03 45.87 127.44 45.87Q121.66 45.87 118.03 43.52Q114.40 41.16 112.51 36.69Q110.62 32.23 110.62 27.10Q110.62 21.51 112.76 17.35Q114.89 13.18 118.84 11.02Q122.78 8.86 127.51 8.86Q132.89 8.86 136.55 11.60Q140.21 14.33 141.65 19.29L136.99 20.39Q135.74 16.48 133.37 14.70Q131.01 12.92 127.42 12.92Q123.29 12.92 120.52 14.89Q117.75 16.87 116.63 20.20Q115.50 23.54 115.50 27.08Q115.50 31.64 116.83 35.05Q118.16 38.45 120.97 40.14Q123.78 41.82 127.05 41.82Q131.03 41.82 133.79 39.53Q136.55 37.23 137.52 32.71ZM147.53 45.26L147.53 9.47L151.93 9.47L151.93 22.31Q155.00 18.75 159.69 18.75Q162.57 18.75 164.70 19.89Q166.82 21.02 167.74 23.02Q168.65 25.02 168.65 28.83L168.65 45.26L164.26 45.26L164.26 28.83Q164.26 25.54 162.83 24.04Q161.40 22.53 158.79 22.53Q156.84 22.53 155.11 23.55Q153.39 24.56 152.66 26.29Q151.93 28.03 151.93 31.08L151.93 45.26L147.53 45.26ZM193.09 36.91L197.63 37.48Q196.56 41.46 193.65 43.65Q190.75 45.85 186.23 45.85Q180.54 45.85 177.21 42.35Q173.88 38.84 173.88 32.52Q173.88 25.98 177.25 22.36Q180.62 18.75 185.99 18.75Q191.19 18.75 194.48 22.29Q197.78 25.83 197.78 32.25Q197.78 32.64 197.75 33.42L178.42 33.42Q178.66 37.70 180.83 39.97Q183.01 42.24 186.25 42.24Q188.67 42.24 190.38 40.97Q192.09 39.70 193.09 36.91M178.66 29.81L193.14 29.81Q192.85 26.54 191.48 24.90Q189.38 22.36 186.04 22.36Q183.01 22.36 180.94 24.39Q178.88 26.42 178.66 29.81ZM220.07 35.77L224.39 36.33Q223.68 40.80 220.76 43.32Q217.85 45.85 213.60 45.85Q208.28 45.85 205.04 42.37Q201.81 38.89 201.81 32.40Q201.81 28.20 203.20 25.05Q204.59 21.90 207.43 20.32Q210.28 18.75 213.62 18.75Q217.85 18.75 220.53 20.89Q223.22 23.02 223.97 26.95L219.70 27.61Q219.09 25 217.54 23.68Q215.99 22.36 213.79 22.36Q210.47 22.36 208.40 24.74Q206.32 27.12 206.32 32.28Q206.32 37.50 208.33 39.87Q210.33 42.24 213.55 42.24Q216.14 42.24 217.87 40.65Q219.60 39.06 220.07 35.77ZM228.17 45.26L228.17 9.47L232.57 9.47L232.57 29.88L242.97 19.34L248.66 19.34L238.75 28.96L249.66 45.26L244.24 45.26L235.67 32.01L232.57 34.99L232.57 45.26L228.17 45.26ZM270.90 36.91L275.44 37.48Q274.37 41.46 271.46 43.65Q268.55 45.85 264.04 45.85Q258.35 45.85 255.02 42.35Q251.68 38.84 251.68 32.52Q251.68 25.98 255.05 22.36Q258.42 18.75 263.79 18.75Q268.99 18.75 272.29 22.29Q275.59 25.83 275.59 32.25Q275.59 32.64 275.56 33.42L256.23 33.42Q256.47 37.70 258.64 39.97Q260.82 42.24 264.06 42.24Q266.48 42.24 268.19 40.97Q269.90 39.70 270.90 36.91M256.47 29.81L270.95 29.81Q270.65 26.54 269.29 24.90Q267.19 22.36 263.84 22.36Q260.82 22.36 258.75 24.39Q256.69 26.42 256.47 29.81ZM280.91 45.26L280.91 19.34L284.86 19.34L284.86 23.27Q286.38 20.51 287.66 19.63Q288.94 18.75 290.48 18.75Q292.70 18.75 295.00 20.17L293.48 24.24Q291.87 23.29 290.26 23.29Q288.82 23.29 287.67 24.16Q286.52 25.02 286.04 26.56Q285.30 28.91 285.30 31.69L285.30 45.26L280.91 45.26Z"/></g></g></svg>